<svg xmlns="http://www.w3.org/2000/svg" viewBox="0 0 461.68 501.58"><path d="M415.5 182.28c-5.674-1.336-8.68-4.895-10.781-8.984 7.554-2.317 17.409-1.188 23.582 7.187-5.498 5.981-10.297 13.71-14.599 22.684 5.414 12.652 13.237 25.304 22.235 37.956 9.559-11.658 16.282-24.45 22.909-37.283-3.98-7.905-7.23-16.22-15.272-24.705 8.063-2.825 13.172-9.609 23.133-5.165.451 3.069-5.1 6.588-9.208 9.657 4.701-.586 9.527-1.913 14.823-6.064.131-5.24-.227-10.48-2.47-15.722-4.636-3.792-35.003 11.152-33.466 11.454 4.05.796-29.004-15.59-34.588-11.23-1.596 3.932-2.52 8.87-2.92 14.6 6.336 5.052 15.771 9.033 16.62 5.614z" style="stroke-linejoin:round;color:#239981;stroke:#239981;stroke-linecap:round;stroke-width:.94123px;fill:#239981" transform="translate(-2472.001 -997.433) scale(6.2047)"/><path d="M435.71 186.33c-7.434 4.648-12.548 11.229-16.395 18.866 4.896 6.052 9.107 12.378 16.845 17.294 8.148-4.535 11.843-11.297 16.62-17.518-2.443-8.018-9.29-13.588-17.069-18.641z" style="stroke-linejoin:round;color:#239981;stroke:#239981;stroke-linecap:round;stroke-width:.94123px;fill:#fff" transform="translate(-2472.001 -997.433) scale(6.2047)"/></svg>